<mxfile host="app.diagrams.net" modified="2024-05-02T14:12:44.970Z" agent="Mozilla/5.0 (Windows NT 10.0; Win64; x64) AppleWebKit/537.36 (KHTML, like Gecko) Chrome/122.0.0.0 Safari/537.36" version="24.3.1" etag="XAPiZ9QbkiCXiosKnY3T" type="device" pages="2">
  <diagram id="yp5LI8JErz1aJBcq98sK" name="Page-1">
    <mxGraphModel dx="794" dy="464" grid="1" gridSize="10" guides="1" tooltips="1" connect="1" arrows="1" fold="1" page="1" pageScale="1" pageWidth="827" pageHeight="1169" math="0" shadow="0">
      <root>
        <mxCell id="0" />
        <mxCell id="1" parent="0" />
        <mxCell id="jqAw2v0CN7SDD-6DgxZ3-1" value="Nhập vào một số nguyên n. In ra kết quả bình phương của n" style="text;html=1;align=center;verticalAlign=middle;whiteSpace=wrap;rounded=0;fontStyle=1;fontSize=15;fontColor=#FF230A;labelBackgroundColor=#030303;labelBorderColor=#00CC00;textShadow=1;spacing=2;" vertex="1" parent="1">
          <mxGeometry x="170" y="20" width="470" height="30" as="geometry" />
        </mxCell>
        <mxCell id="jqAw2v0CN7SDD-6DgxZ3-6" style="edgeStyle=orthogonalEdgeStyle;rounded=0;orthogonalLoop=1;jettySize=auto;html=1;entryX=0.5;entryY=0;entryDx=0;entryDy=0;" edge="1" parent="1" source="jqAw2v0CN7SDD-6DgxZ3-2" target="jqAw2v0CN7SDD-6DgxZ3-3">
          <mxGeometry relative="1" as="geometry" />
        </mxCell>
        <mxCell id="jqAw2v0CN7SDD-6DgxZ3-2" value="START" style="ellipse;whiteSpace=wrap;html=1;" vertex="1" parent="1">
          <mxGeometry x="340" y="70" width="120" height="50" as="geometry" />
        </mxCell>
        <mxCell id="jqAw2v0CN7SDD-6DgxZ3-8" style="edgeStyle=orthogonalEdgeStyle;rounded=0;orthogonalLoop=1;jettySize=auto;html=1;entryX=0.5;entryY=0;entryDx=0;entryDy=0;" edge="1" parent="1" source="jqAw2v0CN7SDD-6DgxZ3-3" target="jqAw2v0CN7SDD-6DgxZ3-4">
          <mxGeometry relative="1" as="geometry" />
        </mxCell>
        <mxCell id="jqAw2v0CN7SDD-6DgxZ3-3" value="INPUT n" style="shape=parallelogram;perimeter=parallelogramPerimeter;whiteSpace=wrap;html=1;fixedSize=1;" vertex="1" parent="1">
          <mxGeometry x="340" y="160" width="120" height="40" as="geometry" />
        </mxCell>
        <mxCell id="jqAw2v0CN7SDD-6DgxZ3-9" value="" style="edgeStyle=orthogonalEdgeStyle;rounded=0;orthogonalLoop=1;jettySize=auto;html=1;" edge="1" parent="1" source="jqAw2v0CN7SDD-6DgxZ3-4" target="jqAw2v0CN7SDD-6DgxZ3-5">
          <mxGeometry relative="1" as="geometry" />
        </mxCell>
        <mxCell id="jqAw2v0CN7SDD-6DgxZ3-4" value="result=n*n" style="rounded=0;whiteSpace=wrap;html=1;" vertex="1" parent="1">
          <mxGeometry x="340" y="240" width="120" height="40" as="geometry" />
        </mxCell>
        <mxCell id="jqAw2v0CN7SDD-6DgxZ3-12" value="" style="edgeStyle=orthogonalEdgeStyle;rounded=0;orthogonalLoop=1;jettySize=auto;html=1;" edge="1" parent="1" source="jqAw2v0CN7SDD-6DgxZ3-5" target="jqAw2v0CN7SDD-6DgxZ3-10">
          <mxGeometry relative="1" as="geometry" />
        </mxCell>
        <mxCell id="jqAw2v0CN7SDD-6DgxZ3-5" value="OUTPUT result" style="shape=parallelogram;perimeter=parallelogramPerimeter;whiteSpace=wrap;html=1;fixedSize=1;" vertex="1" parent="1">
          <mxGeometry x="340" y="320" width="120" height="40" as="geometry" />
        </mxCell>
        <mxCell id="jqAw2v0CN7SDD-6DgxZ3-10" value="END." style="ellipse;whiteSpace=wrap;html=1;" vertex="1" parent="1">
          <mxGeometry x="340" y="400" width="120" height="50" as="geometry" />
        </mxCell>
      </root>
    </mxGraphModel>
  </diagram>
  <diagram id="f8tuSAXLHtzi19ulQgwL" name="Page-2">
    <mxGraphModel dx="794" dy="464" grid="1" gridSize="10" guides="1" tooltips="1" connect="1" arrows="1" fold="1" page="1" pageScale="1" pageWidth="827" pageHeight="1169" math="0" shadow="0">
      <root>
        <mxCell id="0" />
        <mxCell id="1" parent="0" />
        <mxCell id="1QvqgXQv6IJfuQiU2JLA-2" value="&lt;span style=&quot;font-family: Slack-Lato, Slack-Fractions, appleLogo, sans-serif; font-size: 15px; font-variant-ligatures: common-ligatures; text-align: left; background-color: rgb(255, 255, 255);&quot;&gt;Nhập vào chiều dài, chiều rộng của Hình chữ nhật. In ra chu vi, diện tích.&lt;/span&gt;" style="text;html=1;align=center;verticalAlign=middle;whiteSpace=wrap;rounded=0;fontStyle=1;fontColor=#FF230A;" vertex="1" parent="1">
          <mxGeometry x="130" y="10" width="580" height="30" as="geometry" />
        </mxCell>
        <mxCell id="1QvqgXQv6IJfuQiU2JLA-9" value="" style="edgeStyle=orthogonalEdgeStyle;rounded=0;orthogonalLoop=1;jettySize=auto;html=1;" edge="1" parent="1" source="1QvqgXQv6IJfuQiU2JLA-3" target="1QvqgXQv6IJfuQiU2JLA-5">
          <mxGeometry relative="1" as="geometry" />
        </mxCell>
        <mxCell id="1QvqgXQv6IJfuQiU2JLA-3" value="START" style="ellipse;whiteSpace=wrap;html=1;" vertex="1" parent="1">
          <mxGeometry x="320" y="40" width="120" height="40" as="geometry" />
        </mxCell>
        <mxCell id="1QvqgXQv6IJfuQiU2JLA-10" value="" style="edgeStyle=orthogonalEdgeStyle;rounded=0;orthogonalLoop=1;jettySize=auto;html=1;" edge="1" parent="1" source="1QvqgXQv6IJfuQiU2JLA-5" target="1QvqgXQv6IJfuQiU2JLA-7">
          <mxGeometry relative="1" as="geometry" />
        </mxCell>
        <mxCell id="1QvqgXQv6IJfuQiU2JLA-5" value="INPUT dai, rong" style="shape=parallelogram;perimeter=parallelogramPerimeter;whiteSpace=wrap;html=1;fixedSize=1;" vertex="1" parent="1">
          <mxGeometry x="320" y="120" width="120" height="40" as="geometry" />
        </mxCell>
        <mxCell id="1QvqgXQv6IJfuQiU2JLA-11" value="" style="edgeStyle=orthogonalEdgeStyle;rounded=0;orthogonalLoop=1;jettySize=auto;html=1;" edge="1" parent="1" source="1QvqgXQv6IJfuQiU2JLA-7" target="1QvqgXQv6IJfuQiU2JLA-8">
          <mxGeometry relative="1" as="geometry" />
        </mxCell>
        <mxCell id="1QvqgXQv6IJfuQiU2JLA-7" value="tinhChuVi=(dai+rong)*2&lt;div&gt;tinhDienTich=dai*rong&lt;br&gt;&lt;/div&gt;" style="rounded=0;whiteSpace=wrap;html=1;" vertex="1" parent="1">
          <mxGeometry x="280" y="200" width="200" height="40" as="geometry" />
        </mxCell>
        <mxCell id="1QvqgXQv6IJfuQiU2JLA-13" value="" style="edgeStyle=orthogonalEdgeStyle;rounded=0;orthogonalLoop=1;jettySize=auto;html=1;" edge="1" parent="1" source="1QvqgXQv6IJfuQiU2JLA-8" target="1QvqgXQv6IJfuQiU2JLA-12">
          <mxGeometry relative="1" as="geometry" />
        </mxCell>
        <mxCell id="1QvqgXQv6IJfuQiU2JLA-8" value="OUTPUT tinhChuVi, tinhDienTich" style="shape=parallelogram;perimeter=parallelogramPerimeter;whiteSpace=wrap;html=1;fixedSize=1;" vertex="1" parent="1">
          <mxGeometry x="300" y="280" width="160" height="40" as="geometry" />
        </mxCell>
        <mxCell id="1QvqgXQv6IJfuQiU2JLA-12" value="END." style="ellipse;whiteSpace=wrap;html=1;" vertex="1" parent="1">
          <mxGeometry x="320" y="350" width="120" height="40" as="geometry" />
        </mxCell>
      </root>
    </mxGraphModel>
  </diagram>
</mxfile>
